<?xml version="1.0" encoding="utf-8"?>
<!-- Generator: Adobe Illustrator 23.1.0, SVG Export Plug-In . SVG Version: 6.00 Build 0)  -->
<svg version="1.1" id="Слой_1" xmlns="http://www.w3.org/2000/svg" xmlns:xlink="http://www.w3.org/1999/xlink" x="0px" y="0px"
	 viewBox="0 0 178.4 60.2" style="enable-background:new 0 0 178.4 60.2;" xml:space="preserve">
<style type="text/css">
	.st0{clip-path:url(#SVGID_2_);fill:url(#SVGID_3_);}
	.st1{clip-path:url(#SVGID_2_);fill:url(#SVGID_4_);}
	.st2{clip-path:url(#SVGID_2_);fill:url(#SVGID_5_);}
	.st3{clip-path:url(#SVGID_2_);fill:url(#SVGID_6_);}
	.st4{fill:#FFFFFF;}
</style>
<g>
	<path d="M176.3,51.1c0,4.3-3.5,7.7-7.7,7.7H9.6c-4.3,0-7.7-3.5-7.7-7.7V9.5c0-4.3,3.5-7.7,7.7-7.7h159c4.3,0,7.7,3.5,7.7,7.7V51.1z
		"/>
	<g id="PLAY_1_">
		<defs>
			<path id="SVGID_1_" d="M39.7,26.9l-7.9-4.5c0,0-14.3-8.3-15.2-8.8c-0.8-0.5-1.7-0.2-1.7,0.8c0,1.7,0,17.7,0,17.7s0,17.3,0,18
				c0,0.8,0.6,1.1,1.3,0.7c0.7-0.4,15.5-9,15.5-9l7.9-4.5c0,0,6.7-3.9,7.6-4.4c0.9-0.5,0.8-1.2,0.1-1.6
				C46.6,30.9,39.7,26.9,39.7,26.9z"/>
		</defs>
		<clipPath id="SVGID_2_">
			<use xlink:href="#SVGID_1_"  style="overflow:visible;"/>
		</clipPath>
		<linearGradient id="SVGID_3_" gradientUnits="userSpaceOnUse" x1="24.7211" y1="12.7611" x2="24.7211" y2="51.3868">
			<stop  offset="0" style="stop-color:#257DB0"/>
			<stop  offset="0.208" style="stop-color:#3C90B3"/>
			<stop  offset="0.7416" style="stop-color:#73BDB9"/>
			<stop  offset="1" style="stop-color:#89CEBC"/>
		</linearGradient>
		<polygon class="st0" points="15,12.8 15,32.1 15,51.4 34.5,32.1 		"/>
		<linearGradient id="SVGID_4_" gradientUnits="userSpaceOnUse" x1="14.9825" y1="22.3474" x2="39.6913" y2="22.3474">
			<stop  offset="0" style="stop-color:#51BFAC"/>
			<stop  offset="1" style="stop-color:#DEE899"/>
		</linearGradient>
		<polygon class="st1" points="39.7,26.9 31.8,22.3 15,12.6 15,12.8 34.5,32.1 		"/>
		<linearGradient id="SVGID_5_" gradientUnits="userSpaceOnUse" x1="27.3367" y1="32.0743" x2="27.3367" y2="51.5273">
			<stop  offset="0" style="stop-color:#EB403D"/>
			<stop  offset="0.1937" style="stop-color:#D64252"/>
			<stop  offset="0.7369" style="stop-color:#9F4887"/>
			<stop  offset="1" style="stop-color:#894A9C"/>
		</linearGradient>
		<polygon class="st2" points="15,51.4 15,51.5 31.8,41.8 39.7,37.3 34.5,32.1 		"/>
		<linearGradient id="SVGID_6_" gradientUnits="userSpaceOnUse" x1="41.568" y1="26.8867" x2="41.568" y2="37.2611">
			<stop  offset="0" style="stop-color:#F48779"/>
			<stop  offset="0.6121" style="stop-color:#FAB076"/>
			<stop  offset="1" style="stop-color:#FDC674"/>
		</linearGradient>
		<polygon class="st3" points="39.7,26.9 34.5,32.1 39.7,37.3 48.7,32.1 		"/>
	</g>
	<g>
		<g>
			<path class="st4" d="M137.6,39.6c-0.7,0-1.4-0.1-2-0.4c-0.6-0.3-1.1-0.7-1.5-1.2H134c0.1,0.7,0.1,1.3,0.1,1.9v4.6h-1.7V28.2h1.4
				l0.2,1.5h0.1c0.4-0.6,0.9-1.1,1.5-1.3c0.6-0.3,1.2-0.4,2-0.4c1.5,0,2.6,0.5,3.4,1.5c0.8,1,1.2,2.4,1.2,4.3c0,1.8-0.4,3.3-1.2,4.3
				C140.2,39.1,139.1,39.6,137.6,39.6z M137.4,29.4c-1.1,0-2,0.3-2.5,1c-0.5,0.6-0.8,1.6-0.8,3v0.4c0,1.6,0.3,2.7,0.8,3.4
				c0.5,0.7,1.4,1,2.5,1c1,0,1.7-0.4,2.3-1.2c0.5-0.8,0.8-1.9,0.8-3.2c0-1.4-0.3-2.5-0.8-3.2C139.1,29.8,138.4,29.4,137.4,29.4z"/>
			<path class="st4" d="M146.2,39.4h-1.7V23.5h1.7V39.4z"/>
			<path class="st4" d="M156,39.4l-0.3-1.6h-0.1c-0.6,0.7-1.1,1.2-1.7,1.4c-0.6,0.3-1.3,0.4-2.1,0.4c-1.1,0-2-0.3-2.6-0.9
				s-0.9-1.4-0.9-2.4c0-2.3,1.8-3.5,5.4-3.6l1.9-0.1V32c0-0.9-0.2-1.5-0.6-2c-0.4-0.4-1-0.6-1.8-0.6c-0.9,0-2,0.3-3.2,0.9l-0.5-1.3
				c0.6-0.3,1.2-0.5,1.8-0.7c0.7-0.2,1.3-0.3,2-0.3c1.3,0,2.3,0.3,3,0.9c0.6,0.6,1,1.5,1,2.9v7.7H156z M152.1,38.2
				c1.1,0,1.9-0.3,2.5-0.9c0.6-0.6,0.9-1.4,0.9-2.4v-1l-1.7,0.1c-1.4,0-2.3,0.3-2.9,0.6c-0.6,0.4-0.9,1-0.9,1.7
				c0,0.6,0.2,1.1,0.6,1.4C151,38.1,151.5,38.2,152.1,38.2z"/>
			<path class="st4" d="M158.2,28.2h1.8l2.5,6.4c0.5,1.5,0.9,2.5,1,3.2h0.1c0.1-0.3,0.3-0.9,0.6-1.8c0.3-0.8,1.2-3.4,2.8-7.8h1.8
				L163.9,41c-0.5,1.3-1,2.2-1.7,2.7c-0.6,0.5-1.4,0.8-2.4,0.8c-0.5,0-1-0.1-1.5-0.2v-1.4c0.4,0.1,0.8,0.1,1.3,0.1
				c1.2,0,2-0.7,2.5-2l0.6-1.6L158.2,28.2z"/>
		</g>
	</g>
	<g>
		<g>
			<path class="st4" d="M106.1,29.2c0.5,0.4,1.7,1.4,1.7,3.2c0,1.7-1,2.6-2,3.3c-0.3,0.3-0.7,0.6-0.7,1.2c0,0.5,0.4,0.8,0.6,1
				l0.8,0.7c1,0.9,2,1.7,2,3.3c0,2.2-2.1,4.4-6.2,4.4c-3.4,0-5.1-1.6-5.1-3.4c0-0.8,0.4-2,1.8-2.9c1.5-0.9,3.4-1,4.5-1.1
				c-0.3-0.4-0.7-0.9-0.7-1.6c0-0.4,0.1-0.6,0.2-0.9c-0.3,0-0.5,0-0.8,0c-2.5,0-3.9-1.9-3.9-3.7c0-1.1,0.5-2.3,1.5-3.1
				c1.3-1.1,2.9-1.3,4.2-1.3h4.8l-1.5,0.8H106.1z M104.4,39.7c-0.2,0-0.3,0-0.5,0c-0.2,0-1.5,0-2.5,0.4c-0.5,0.2-2,0.8-2,2.4
				c0,1.7,1.6,2.9,4.1,2.9c2.3,0,3.5-1.1,3.5-2.5C107,41.6,106.2,40.9,104.4,39.7z M105.1,35.2c0.5-0.5,0.6-1.3,0.6-1.7
				c0-1.7-1-4.3-3-4.3c-0.6,0-1.3,0.3-1.6,0.8c-0.4,0.5-0.5,1.1-0.5,1.7c0,1.6,0.9,4.2,2.9,4.2C104.1,35.9,104.7,35.6,105.1,35.2z"
				/>
			<path class="st4" d="M91.3,39.3c-3.7,0-5.7-2.9-5.7-5.5c0-3.1,2.5-5.7,6.1-5.7c3.4,0,5.6,2.7,5.6,5.5
				C97.3,36.4,95.1,39.3,91.3,39.3z M94.2,37.4c0.6-0.8,0.7-1.7,0.7-2.6c0-2.1-1-6-3.9-6c-0.8,0-1.5,0.3-2.1,0.8
				c-0.9,0.8-1.1,1.9-1.1,2.9c0,2.3,1.1,6.1,4,6.1C92.8,38.6,93.7,38.1,94.2,37.4z"/>
			<path class="st4" d="M78.6,39.3c-3.7,0-5.7-2.9-5.7-5.5c0-3.1,2.5-5.7,6.1-5.7c3.4,0,5.6,2.7,5.6,5.5
				C84.5,36.4,82.4,39.3,78.6,39.3z M81.5,37.4c0.6-0.8,0.7-1.7,0.7-2.6c0-2.1-1-6-3.9-6c-0.8,0-1.5,0.3-2.1,0.8
				c-0.9,0.8-1.1,1.9-1.1,2.9c0,2.3,1.1,6.1,4,6.1C80,38.6,81,38.1,81.5,37.4z"/>
			<path class="st4" d="M71.1,38.9l-3.4,0.8c-1.4,0.2-2.6,0.4-3.9,0.4c-6.5,0-9-4.8-9-8.5c0-4.6,3.5-8.8,9.5-8.8
				c1.3,0,2.5,0.2,3.6,0.5c1.8,0.5,2.6,1.1,3.1,1.5l-2,1.9l-0.8,0.2l0.6-0.9c-0.8-0.8-2.3-2.2-5-2.2c-3.7,0-6.5,2.8-6.5,7
				c0,4.4,3.2,8.6,8.3,8.6c1.5,0,2.3-0.3,3-0.6v-3.8L65.1,35l1.9-1h5l-0.6,0.6c-0.2,0.1-0.2,0.2-0.2,0.4c0,0.2,0,0.9,0,1.1V38.9z"/>
			<path class="st4" d="M113.5,38.2c-0.8-0.1-0.9-0.2-0.9-1.1v-0.3V23.8c0-0.1,0-0.1,0-0.2c0.1-0.8,0.3-1,1.1-1.4h-3.4l-1.8,0.8h1.8
				v0l0,0v13.8v0.8c0,0.5-0.1,0.5-0.6,1.2h4.2l0.9-0.5C114.3,38.3,113.9,38.3,113.5,38.2z"/>
			<path class="st4" d="M123.1,38.5c-0.3,0.1-0.5,0.3-0.8,0.4c-0.8,0.4-1.6,0.4-2.3,0.4c-0.7,0-1.9,0-3.1-0.9
				c-1.7-1.2-2.4-3.2-2.4-4.9c0-3.6,3-5.4,5.4-5.4c0.8,0,1.7,0.2,2.4,0.7c1.2,0.8,1.5,1.8,1.6,2.3l-5.5,2.2l-1.8,0.1
				c0.6,3,2.6,4.7,4.8,4.7c1.2,0,2.1-0.4,2.9-0.8L123.1,38.5z M120.9,31.5c0.4-0.2,0.7-0.3,0.7-0.6c0-0.9-1.1-2-2.3-2
				c-0.9,0-2.7,0.7-2.7,3.3c0,0.4,0,0.8,0.1,1.2L120.9,31.5z"/>
			<g>
				<path class="st4" d="M125.4,28.2v1.5h-0.2v-1.5h-0.5v-0.2h1.2v0.2H125.4z"/>
				<path class="st4" d="M127.5,29.8v-1.6h0l-0.5,1.6h-0.1l-0.5-1.6h0v1.6h-0.2v-1.7h0.3l0.4,1.4h0l0.4-1.4h0.3v1.7H127.5z"/>
			</g>
		</g>
	</g>
	<g>
		<path class="st4" d="M61.4,18.3h-0.9v-1.6h-4.8v1.6h-0.9l0-2.4h0.5c0.3-0.3,0.5-0.8,0.7-1.3s0.3-1.1,0.3-1.8l0.1-2.9h4V16h0.9
			L61.4,18.3z M56.4,16h3.3v-5.2h-2.3l-0.1,2c0,0.8-0.1,1.4-0.3,2C56.9,15.2,56.7,15.6,56.4,16z"/>
		<path class="st4" d="M62.1,14.2c0-0.5,0.1-0.9,0.3-1.3c0.2-0.4,0.5-0.7,0.8-0.9s0.7-0.3,1.2-0.3c0.7,0,1.2,0.2,1.6,0.7
			c0.4,0.5,0.6,1.1,0.6,1.9v0.1c0,0.5-0.1,0.9-0.3,1.3c-0.2,0.4-0.4,0.7-0.8,0.9c-0.3,0.2-0.7,0.3-1.2,0.3c-0.7,0-1.2-0.2-1.6-0.7
			C62.3,15.6,62.1,15,62.1,14.2L62.1,14.2z M63,14.3c0,0.5,0.1,1,0.4,1.3c0.3,0.3,0.6,0.5,1,0.5c0.4,0,0.8-0.2,1-0.5
			c0.3-0.3,0.4-0.8,0.4-1.4c0-0.5-0.1-1-0.4-1.3c-0.3-0.3-0.6-0.5-1-0.5c-0.4,0-0.8,0.2-1,0.5C63.1,13.2,63,13.6,63,14.3z"/>
		<path class="st4" d="M69.7,16.1c0.3,0,0.6-0.1,0.8-0.3s0.4-0.4,0.4-0.7h0.8c0,0.3-0.1,0.6-0.3,0.8s-0.4,0.5-0.7,0.6
			c-0.3,0.2-0.6,0.2-1,0.2c-0.7,0-1.2-0.2-1.6-0.7c-0.4-0.5-0.6-1.1-0.6-1.8v-0.1c0-0.5,0.1-0.9,0.3-1.3c0.2-0.4,0.4-0.7,0.8-0.9
			s0.7-0.3,1.2-0.3c0.6,0,1,0.2,1.4,0.5c0.4,0.3,0.6,0.8,0.6,1.3h-0.8c0-0.3-0.1-0.6-0.4-0.8s-0.5-0.3-0.8-0.3c-0.4,0-0.8,0.2-1,0.5
			c-0.2,0.3-0.4,0.8-0.4,1.3v0.2c0,0.6,0.1,1,0.4,1.3C68.9,15.9,69.3,16.1,69.7,16.1z"/>
		<path class="st4" d="M76.3,12.4h-1.7v4.3h-0.8v-4.3h-1.6v-0.7h4.1V12.4z"/>
		<path class="st4" d="M78.8,15.4l1.2-3.7h0.9l-2,5.7c-0.3,0.8-0.8,1.2-1.5,1.2l-0.2,0l-0.3-0.1v-0.7l0.2,0c0.3,0,0.5-0.1,0.7-0.2
			c0.2-0.1,0.3-0.3,0.4-0.6l0.2-0.5l-1.8-4.9h0.9L78.8,15.4z"/>
		<path class="st4" d="M85.7,16.7h-0.8v-4.3h-2.3v4.3h-0.9v-5h4V16.7z"/>
		<path class="st4" d="M91.1,16.7h-0.8v-2.1h-2.3v2.1h-0.9v-5h0.9v2.1h2.3v-2.1h0.8V16.7z"/>
		<path class="st4" d="M92.2,14.2c0-0.5,0.1-0.9,0.3-1.3c0.2-0.4,0.5-0.7,0.8-0.9s0.7-0.3,1.2-0.3c0.7,0,1.2,0.2,1.6,0.7
			c0.4,0.5,0.6,1.1,0.6,1.9v0.1c0,0.5-0.1,0.9-0.3,1.3c-0.2,0.4-0.4,0.7-0.8,0.9c-0.3,0.2-0.7,0.3-1.2,0.3c-0.7,0-1.2-0.2-1.6-0.7
			C92.4,15.6,92.2,15,92.2,14.2L92.2,14.2z M93.1,14.3c0,0.5,0.1,1,0.4,1.3c0.3,0.3,0.6,0.5,1,0.5c0.4,0,0.8-0.2,1-0.5
			c0.3-0.3,0.4-0.8,0.4-1.4c0-0.5-0.1-1-0.4-1.3c-0.3-0.3-0.6-0.5-1-0.5c-0.4,0-0.8,0.2-1,0.5C93.2,13.2,93.1,13.6,93.1,14.3z"/>
		<path class="st4" d="M100.2,16.7v-5h1.9c0.7,0,1.2,0.1,1.5,0.3s0.5,0.6,0.5,1c0,0.2-0.1,0.4-0.2,0.6c-0.1,0.2-0.3,0.3-0.6,0.4
			c0.3,0.1,0.5,0.2,0.7,0.4s0.3,0.4,0.3,0.7c0,0.5-0.2,0.8-0.5,1c-0.3,0.2-0.8,0.4-1.4,0.4H100.2z M101,13.8h1.1
			c0.8,0,1.2-0.2,1.2-0.7c0-0.5-0.4-0.7-1.1-0.7H101V13.8z M101,14.5V16h1.4c0.4,0,0.6-0.1,0.8-0.2c0.2-0.1,0.3-0.3,0.3-0.6
			c0-0.5-0.4-0.7-1.1-0.7H101z"/>
	</g>
</g>
</svg>
