<?xml version="1.0" encoding="utf-8"?>
<!-- Generator: Adobe Illustrator 19.2.1, SVG Export Plug-In . SVG Version: 6.00 Build 0)  -->
<svg version="1.1" id="Layer_1" xmlns="http://www.w3.org/2000/svg" xmlns:xlink="http://www.w3.org/1999/xlink" x="0px" y="0px"
	 viewBox="0 0 332.5 100" style="enable-background:new 0 0 332.5 100;" xml:space="preserve">
<style type="text/css">
	.st0{clip-path:url(#SVGID_2_);fill:#FFFFFF;}
</style>
<g>
	<path d="M317.3,91.9H16c-6,0-10.8-4.9-10.8-10.8V18.8C5.2,12.9,10.1,8,16,8h301.3c6,0,10.8,4.9,10.8,10.8v62.2
		C328.2,87,323.3,91.9,317.3,91.9z"/>
	<g>
		<defs>
			<polyline id="SVGID_1_" points="328.2,91.9 328.2,8 5.2,8 5.2,91.9 			"/>
		</defs>
		<clipPath id="SVGID_2_">
			<use xlink:href="#SVGID_1_"  style="overflow:visible;"/>
		</clipPath>
		<path class="st0" d="M47.4,23.9c0.1,0.5,0.2,1,0.2,1.7c-2.4,1-3.3,1.8-3.3,5.4v2.2l-1.7,0.3v-2.5C42.7,25.7,44.7,24.8,47.4,23.9
			 M52.2,22.7c0.1,0.5,0.2,1.1,0.3,1.7c4.3-0.6,4.2,1.2,4.2,4.9v1.4l1.6-0.3v-1C58.4,23.5,57.5,21.9,52.2,22.7 M35.2,35v-7.6
			c-0.1-4.7,2.4-6.2,6.9-7.2c6.8-1.6,7.2,2.8,7.2,5.6v6.4l1.7-0.3v-6c0-5.2-1.7-9.2-9.2-7.5c-4.1,0.9-8.2,2-8.2,8.8v8.1L35.2,35z
			 M55,54.9H42.3v-9.2L55,43.9V54.9z M55,67.9l-12.7-1.9v-9.9H55V67.9z M41,54.9H30.9v-7.7L41,45.8V54.9z M41,66l-10.1-1.4v-8.4H41
			V66z M66.6,30.7l-45.5,9.1v33.1l45.5,9.1l9.1-3.3V34L66.6,30.7z"/>
		<path class="st0" d="M106.6,31.9c0,1.7-0.4,3.2-1.1,4.5c-0.7,1.3-1.8,2.3-3.2,3c-1.4,0.7-2.9,1-4.7,1h-4.4V23.8h4.6
			C103.7,23.8,106.6,26.5,106.6,31.9 M104.6,31.9c0-4.3-2.3-6.4-6.8-6.4h-2.6v13.1h2.5c2.2,0,3.9-0.6,5.1-1.8
			C104,35.7,104.6,34.1,104.6,31.9 M120.4,34.4c0,1.9-0.5,3.4-1.6,4.5c-1.1,1.1-2.5,1.7-4.3,1.7c-1.8,0-3.2-0.6-4.2-1.7
			c-1-1.1-1.6-2.6-1.6-4.4c0-2,0.5-3.5,1.6-4.6c1.1-1.1,2.6-1.7,4.4-1.7c1.8,0,3.1,0.5,4.1,1.6C119.9,31,120.4,32.5,120.4,34.4
			 M118.5,34.5c0-1.5-0.3-2.6-1-3.4c-0.7-0.8-1.6-1.2-2.8-1.2c-1.2,0-2.2,0.4-2.9,1.2c-0.7,0.8-1.1,2-1.1,3.4c0,1.4,0.4,2.5,1.1,3.3
			c0.7,0.8,1.7,1.2,2.9,1.2c1.2,0,2.2-0.4,2.8-1.2C118.1,37.1,118.5,36,118.5,34.5 M138.3,28.5l-3.6,11.9h-2l-2.4-8.5
			c-0.1-0.3-0.1-0.7-0.2-1.1h0c0,0.3-0.1,0.6-0.2,1.1l-2.7,8.5h-1.9l-3.6-11.9h2l2.4,8.9c0.1,0.3,0.1,0.7,0.2,1.1h0.1
			c0-0.3,0.1-0.7,0.2-1.1l2.7-8.9h1.7l2.5,9c0.1,0.3,0.1,0.7,0.2,1.1h0.1c0-0.4,0.1-0.7,0.2-1.1l2.4-9H138.3z M150.4,40.4h-1.9v-6.8
			c0-2.5-0.9-3.8-2.8-3.8c-0.9,0-1.7,0.4-2.4,1.1c-0.6,0.7-0.9,1.6-0.9,2.7v6.8h-1.9V28.5h1.9v2h0c0.9-1.5,2.2-2.3,3.9-2.3
			c1.3,0,2.3,0.4,3,1.3c0.7,0.8,1,2.1,1,3.6V40.4z M155.9,40.4H154V22.8h1.9V40.4z M170.5,34.4c0,1.9-0.5,3.4-1.6,4.5
			c-1.1,1.1-2.5,1.7-4.3,1.7c-1.8,0-3.2-0.6-4.2-1.7c-1-1.1-1.6-2.6-1.6-4.4c0-2,0.5-3.5,1.6-4.6c1.1-1.1,2.6-1.7,4.4-1.7
			c1.8,0,3.1,0.5,4.1,1.6C170,31,170.5,32.5,170.5,34.4 M168.5,34.5c0-1.5-0.3-2.6-1-3.4c-0.7-0.8-1.6-1.2-2.8-1.2
			c-1.2,0-2.2,0.4-2.9,1.2c-0.7,0.8-1.1,2-1.1,3.4c0,1.4,0.4,2.5,1.1,3.3c0.7,0.8,1.7,1.2,2.9,1.2c1.2,0,2.2-0.4,2.8-1.2
			C168.2,37.1,168.5,36,168.5,34.5 M181.8,40.4h-1.9v-1.9h0c-0.8,1.4-2,2.1-3.7,2.1c-1.1,0-2.1-0.3-2.7-0.9c-0.7-0.6-1-1.5-1-2.5
			c0-2.2,1.3-3.5,3.9-3.9l3.6-0.5c0-2-0.8-3-2.4-3c-1.4,0-2.7,0.5-3.9,1.4v-1.9c0.3-0.3,0.9-0.5,1.8-0.8c0.8-0.2,1.6-0.4,2.3-0.4
			c2.8,0,4.2,1.5,4.2,4.4V40.4z M179.9,34.4l-2.9,0.4c-1,0.1-1.7,0.4-2.1,0.7c-0.4,0.3-0.6,0.9-0.6,1.6c0,0.6,0.2,1.1,0.6,1.4
			c0.4,0.4,1,0.5,1.6,0.5c0.9,0,1.7-0.3,2.3-1c0.6-0.7,0.9-1.5,0.9-2.5V34.4z M195.5,40.4h-1.9v-2h0c-0.9,1.5-2.2,2.3-4.1,2.3
			c-1.5,0-2.7-0.5-3.6-1.6c-0.9-1.1-1.3-2.5-1.3-4.3c0-2,0.5-3.5,1.5-4.7c1-1.2,2.3-1.8,4-1.8c1.6,0,2.8,0.6,3.6,1.9h0v-7.3h1.9
			V40.4z M193.6,35v-1.8c0-1-0.3-1.8-1-2.4c-0.7-0.6-1.4-1-2.4-1c-1.1,0-2.1,0.4-2.7,1.3c-0.7,0.8-1,2-1,3.5c0,1.4,0.3,2.4,0.9,3.2
			c0.6,0.8,1.5,1.2,2.6,1.2c1,0,1.9-0.4,2.6-1.1C193.2,37.2,193.6,36.2,193.6,35 M210.7,24.5c-0.4-0.2-0.8-0.3-1.3-0.3
			c-1.3,0-2,0.8-2,2.5v1.8h2.8v1.6h-2.8v10.3h-1.9V30.1h-2v-1.6h2v-1.9c0-1.2,0.4-2.2,1.1-2.9c0.7-0.7,1.6-1.1,2.7-1.1
			c0.6,0,1,0.1,1.4,0.2V24.5z M218.5,30.5c-0.3-0.3-0.8-0.4-1.5-0.4c-0.8,0-1.5,0.4-2,1.2c-0.5,0.8-0.8,1.8-0.8,3.1v6.1h-1.9V28.5
			h1.9V31h0c0.3-0.8,0.7-1.5,1.2-1.9c0.6-0.5,1.2-0.7,1.9-0.7c0.5,0,0.9,0.1,1.1,0.2V30.5z M231,34.4c0,1.9-0.5,3.4-1.6,4.5
			c-1.1,1.1-2.5,1.7-4.3,1.7c-1.8,0-3.2-0.6-4.2-1.7c-1-1.1-1.6-2.6-1.6-4.4c0-2,0.5-3.5,1.6-4.6c1.1-1.1,2.6-1.7,4.4-1.7
			c1.8,0,3.1,0.5,4.1,1.6C230.5,31,231,32.5,231,34.4 M229.1,34.5c0-1.5-0.3-2.6-1-3.4c-0.7-0.8-1.6-1.2-2.8-1.2
			c-1.2,0-2.2,0.4-2.9,1.2c-0.7,0.8-1.1,2-1.1,3.4c0,1.4,0.4,2.5,1.1,3.3c0.7,0.8,1.7,1.2,2.9,1.2c1.2,0,2.2-0.4,2.8-1.2
			C228.7,37.1,229.1,36,229.1,34.5 M250.8,40.4h-1.9v-6.8c0-1.3-0.2-2.3-0.6-2.9c-0.4-0.6-1.1-0.9-2-0.9c-0.8,0-1.5,0.4-2.1,1.1
			c-0.6,0.7-0.9,1.6-0.9,2.7v6.8h-1.9v-7c0-2.3-0.9-3.5-2.7-3.5c-0.8,0-1.5,0.4-2.1,1c-0.5,0.7-0.8,1.6-0.8,2.7v6.8H234V28.5h1.9
			v1.9h0c0.8-1.4,2.1-2.2,3.7-2.2c0.8,0,1.5,0.2,2.1,0.6c0.6,0.4,1,1,1.3,1.8c0.9-1.6,2.2-2.5,3.9-2.5c2.6,0,3.9,1.6,3.9,4.8V40.4z"
			/>
		<path class="st0" d="M123.7,51.1l-7,24.8h-3.4l-5.1-18.1c-0.2-0.7-0.3-1.5-0.4-2.5h-0.1c-0.1,0.8-0.2,1.7-0.5,2.5l-5.1,18.1h-3.4
			l-7.2-24.8h3.2l5.3,19c0.2,0.8,0.4,1.7,0.4,2.5h0.1c0.1-0.7,0.2-1.5,0.5-2.5l5.5-19h2.8l5.2,19.1c0.2,0.7,0.3,1.5,0.4,2.3h0.1
			c0.1-0.6,0.2-1.4,0.5-2.4l5.1-19.1H123.7z M129.3,52.4c0,0.5-0.2,1-0.6,1.3c-0.4,0.3-0.8,0.5-1.3,0.5c-0.5,0-1-0.2-1.3-0.5
			c-0.4-0.3-0.5-0.8-0.5-1.3c0-0.5,0.2-0.9,0.5-1.3c0.4-0.4,0.8-0.5,1.3-0.5c0.5,0,1,0.2,1.3,0.5C129.1,51.4,129.3,51.8,129.3,52.4
			 M128.8,75.9H126V58.2h2.8V75.9z M147.8,75.9h-2.8V65.8c0-3.7-1.4-5.6-4.1-5.6c-1.4,0-2.6,0.5-3.5,1.6c-0.9,1-1.4,2.4-1.4,4v10.1
			h-2.8V58.2h2.8v2.9h0.1c1.3-2.2,3.3-3.4,5.8-3.4c1.9,0,3.4,0.6,4.4,1.9c1,1.3,1.5,3.1,1.5,5.4V75.9z M167.4,75.9h-2.8v-3h-0.1
			c-1.3,2.3-3.3,3.4-6.1,3.4c-2.2,0-4-0.8-5.3-2.4c-1.3-1.6-2-3.8-2-6.4c0-2.9,0.7-5.3,2.2-7c1.5-1.8,3.4-2.7,5.9-2.7
			c2.4,0,4.2,1,5.3,2.9h0.1V49.7h2.8V75.9z M164.6,67.9v-2.6c0-1.5-0.5-2.7-1.5-3.6c-1-1-2.2-1.5-3.5-1.5c-1.7,0-3.1,0.6-4.1,1.9
			c-1,1.3-1.5,3-1.5,5.2c0,2,0.5,3.6,1.4,4.8c0.9,1.2,2.2,1.8,3.8,1.8c1.6,0,2.8-0.6,3.8-1.7C164.1,71,164.6,69.6,164.6,67.9
			 M188.3,66.9c0,2.8-0.8,5.1-2.4,6.8c-1.6,1.7-3.7,2.6-6.4,2.6c-2.6,0-4.7-0.8-6.3-2.5c-1.6-1.7-2.3-3.9-2.3-6.6
			c0-2.9,0.8-5.2,2.4-6.9c1.6-1.7,3.8-2.5,6.6-2.5c2.6,0,4.7,0.8,6.2,2.5C187.6,61.8,188.3,64.1,188.3,66.9 M185.4,67
			c0-2.2-0.5-3.9-1.5-5.1c-1-1.2-2.4-1.8-4.2-1.8c-1.8,0-3.3,0.6-4.3,1.8c-1.1,1.2-1.6,2.9-1.6,5.1c0,2.1,0.5,3.8,1.6,5
			c1.1,1.2,2.5,1.8,4.3,1.8c1.8,0,3.3-0.6,4.2-1.8C184.9,70.9,185.4,69.2,185.4,67 M214.1,58.2l-5.3,17.7h-2.9l-3.6-12.7
			c-0.1-0.4-0.2-1-0.3-1.6h-0.1c0,0.4-0.2,0.9-0.4,1.6l-4,12.7h-2.8l-5.3-17.7h3l3.6,13.3c0.1,0.5,0.2,1,0.2,1.6h0.1
			c0-0.4,0.1-1,0.3-1.6l4.1-13.3h2.6l3.7,13.3c0.1,0.4,0.2,1,0.2,1.6h0.1c0-0.6,0.1-1.1,0.3-1.6l3.6-13.3H214.1z M226.2,71.1
			c0,1.5-0.6,2.8-1.8,3.7c-1.2,1-2.8,1.4-4.7,1.4c-1.7,0-3.1-0.4-4.4-1.1v-3c1.4,1.1,2.9,1.7,4.6,1.7c2.2,0,3.4-0.8,3.4-2.5
			c0-0.7-0.2-1.2-0.7-1.6c-0.4-0.4-1.4-1-3-1.7c-1.6-0.7-2.7-1.4-3.3-2.2c-0.6-0.8-1-1.8-1-3c0-1.5,0.6-2.7,1.8-3.7
			c1.2-1,2.7-1.5,4.5-1.5c1.4,0,2.7,0.3,3.8,0.8v2.8c-1.2-0.8-2.5-1.3-4-1.3c-0.9,0-1.7,0.2-2.3,0.7c-0.6,0.5-0.9,1.1-0.9,1.8
			c0,0.8,0.2,1.4,0.7,1.8c0.4,0.4,1.3,0.9,2.7,1.5c1.7,0.7,2.9,1.5,3.5,2.3C225.8,68.9,226.2,69.9,226.2,71.1"/>
		<path class="st0" d="M251.4,69.6c0,2.1-0.7,3.7-2.2,4.9c-1.5,1.2-3.5,1.8-6,1.8c-0.9,0-2-0.2-3.1-0.5c-1.2-0.3-2-0.6-2.5-1v-3.4
			c0.7,0.6,1.6,1.2,2.8,1.6c1.1,0.4,2.2,0.6,3.2,0.6c3.2,0,4.8-1.2,4.8-3.7c0-1-0.3-1.9-1-2.7c-0.7-0.7-2.1-1.7-4.2-2.9
			c-2-1.2-3.5-2.2-4.3-3.3c-0.8-1-1.2-2.3-1.2-3.8c0-2,0.7-3.5,2.2-4.8c1.5-1.2,3.4-1.8,5.7-1.8c2.2,0,3.8,0.3,4.9,0.9v3.2
			c-1.3-1-3-1.5-5-1.5c-1.4,0-2.5,0.3-3.4,1c-0.9,0.7-1.3,1.6-1.3,2.7c0,0.8,0.1,1.5,0.4,2c0.3,0.5,0.7,1,1.3,1.5
			c0.6,0.5,1.7,1.1,3.1,2c2.2,1.2,3.7,2.4,4.6,3.5C250.9,67,251.4,68.2,251.4,69.6 M263.1,75.7c-0.7,0.4-1.6,0.6-2.7,0.6
			c-3.1,0-4.6-1.7-4.6-5.2V60.6h-3v-2.4h3v-4.3l2.8-0.9v5.2h4.5v2.4h-4.5v10c0,1.2,0.2,2,0.6,2.5c0.4,0.5,1.1,0.7,2,0.7
			c0.7,0,1.3-0.2,1.8-0.6V75.7z M282.6,66.9c0,2.8-0.8,5.1-2.4,6.8c-1.6,1.7-3.7,2.6-6.4,2.6c-2.6,0-4.7-0.8-6.3-2.5
			c-1.6-1.7-2.3-3.9-2.3-6.6c0-2.9,0.8-5.2,2.4-6.9c1.6-1.7,3.8-2.6,6.6-2.6c2.6,0,4.7,0.8,6.2,2.5
			C281.9,61.8,282.6,64.1,282.6,66.9 M279.7,67c0-2.2-0.5-3.9-1.5-5.1c-1-1.2-2.4-1.8-4.2-1.8c-1.8,0-3.3,0.6-4.3,1.8
			c-1.1,1.2-1.6,2.9-1.6,5.1c0,2.1,0.5,3.8,1.6,5c1.1,1.2,2.5,1.8,4.3,1.8c1.8,0,3.2-0.6,4.2-1.8C279.2,70.9,279.7,69.2,279.7,67
			 M294.8,61c-0.5-0.4-1.2-0.6-2.2-0.6c-1.3,0-2.3,0.6-3.1,1.8c-0.8,1.2-1.2,2.7-1.2,4.6v9h-2.8V58.2h2.8v3.6h0.1
			c0.4-1.2,1-2.2,1.8-2.9c0.8-0.7,1.8-1.1,2.8-1.1c0.7,0,1.3,0.1,1.7,0.2V61z M311.8,67.7h-12.5c0,2,0.6,3.5,1.6,4.6
			c1,1.1,2.4,1.6,4.2,1.6c2,0,3.8-0.6,5.5-1.9v2.6c-1.5,1.1-3.6,1.7-6.1,1.7c-2.5,0-4.5-0.8-5.9-2.4c-1.4-1.6-2.1-3.9-2.1-6.8
			c0-1.8,0.4-3.4,1.1-4.8c0.7-1.4,1.7-2.6,2.9-3.4c1.2-0.8,2.6-1.2,4.1-1.2c2.3,0,4.1,0.7,5.4,2.2c1.3,1.5,1.9,3.6,1.9,6.3V67.7z
			 M308.9,65.3c0-1.6-0.4-2.9-1.2-3.8c-0.8-0.9-1.8-1.4-3.2-1.4c-1.3,0-2.4,0.5-3.4,1.4c-0.9,0.9-1.5,2.2-1.8,3.7H308.9z"/>
	</g>
</g>
</svg>
